<svg xmlns="http://www.w3.org/2000/svg" viewBox="0 0 24 24"><path d="M0 12C0 5.373 5.373 0 12 0s12 5.373 12 12-5.373 12-12 12S0 18.627 0 12zm12.465-5.4a.95.95 0 1 0 0 1.9.95.95 0 0 0 0-1.9zm-4.05 1.8a.95.95 0 1 0 0 1.9.95.95 0 0 0 0-1.9zm8.1 0a.95.95 0 1 0 0 1.9.95.95 0 0 0 0-1.9zm-10.8 3.15a.95.95 0 1 0 0 1.9.95.95 0 0 0 0-1.9zm5.4 0a.95.95 0 1 0 0 1.9.95.95 0 0 0 0-1.9zm5.4 0a.95.95 0 1 0 0 1.9.95.95 0 0 0 0-1.9zm-8.1 3.15a.95.95 0 1 0 0 1.9.95.95 0 0 0 0-1.9zm5.4 0a.95.95 0 1 0 0 1.9.95.95 0 0 0 0-1.9zm-2.7 2.7a.95.95 0 1 0 0 1.9.95.95 0 0 0 0-1.9z" fill="#888880"/></svg>
